<svg width="685" height="617" viewBox="0 0 685 617" fill="none" xmlns="http://www.w3.org/2000/svg">
<rect x="404" y="249" width="280.317" height="118.625" rx="10" fill="#BFAA40"/>
<path d="M494.187 305L490.203 298.16H487.563V305H485.379V288.272H490.779C492.043 288.272 493.107 288.488 493.971 288.92C494.851 289.352 495.507 289.936 495.939 290.672C496.371 291.408 496.587 292.248 496.587 293.192C496.587 294.344 496.251 295.36 495.579 296.24C494.923 297.12 493.931 297.704 492.603 297.992L496.803 305H494.187ZM487.563 296.408H490.779C491.963 296.408 492.851 296.12 493.443 295.544C494.035 294.952 494.331 294.168 494.331 293.192C494.331 292.2 494.035 291.432 493.443 290.888C492.867 290.344 491.979 290.072 490.779 290.072H487.563V296.408ZM505.717 305.216C504.485 305.216 503.365 304.936 502.357 304.376C501.365 303.816 500.581 303.024 500.005 302C499.445 300.96 499.165 299.76 499.165 298.4C499.165 297.056 499.453 295.872 500.029 294.848C500.621 293.808 501.421 293.016 502.429 292.472C503.437 291.912 504.565 291.632 505.813 291.632C507.061 291.632 508.189 291.912 509.197 292.472C510.205 293.016 510.997 293.8 511.573 294.824C512.165 295.848 512.461 297.04 512.461 298.4C512.461 299.76 512.157 300.96 511.549 302C510.957 303.024 510.149 303.816 509.125 304.376C508.101 304.936 506.965 305.216 505.717 305.216ZM505.717 303.296C506.501 303.296 507.237 303.112 507.925 302.744C508.613 302.376 509.165 301.824 509.581 301.088C510.013 300.352 510.229 299.456 510.229 298.4C510.229 297.344 510.021 296.448 509.605 295.712C509.189 294.976 508.645 294.432 507.973 294.08C507.301 293.712 506.573 293.528 505.789 293.528C504.989 293.528 504.253 293.712 503.581 294.08C502.925 294.432 502.397 294.976 501.997 295.712C501.597 296.448 501.397 297.344 501.397 298.4C501.397 299.472 501.589 300.376 501.973 301.112C502.373 301.848 502.901 302.4 503.557 302.768C504.213 303.12 504.933 303.296 505.717 303.296ZM526.996 291.848V305H524.812V303.056C524.396 303.728 523.812 304.256 523.06 304.64C522.324 305.008 521.508 305.192 520.612 305.192C519.588 305.192 518.668 304.984 517.852 304.568C517.036 304.136 516.388 303.496 515.908 302.648C515.444 301.8 515.212 300.768 515.212 299.552V291.848H517.372V299.264C517.372 300.56 517.7 301.56 518.356 302.264C519.012 302.952 519.908 303.296 521.044 303.296C522.212 303.296 523.132 302.936 523.804 302.216C524.476 301.496 524.812 300.448 524.812 299.072V291.848H526.996ZM537.092 291.608C538.692 291.608 539.988 292.096 540.98 293.072C541.972 294.032 542.468 295.424 542.468 297.248V305H540.308V297.56C540.308 296.248 539.98 295.248 539.324 294.56C538.668 293.856 537.772 293.504 536.636 293.504C535.484 293.504 534.564 293.864 533.876 294.584C533.204 295.304 532.868 296.352 532.868 297.728V305H530.684V291.848H532.868V293.72C533.3 293.048 533.884 292.528 534.62 292.16C535.372 291.792 536.196 291.608 537.092 291.608ZM545.22 298.376C545.22 297.032 545.492 295.856 546.036 294.848C546.58 293.824 547.324 293.032 548.268 292.472C549.228 291.912 550.3 291.632 551.484 291.632C552.508 291.632 553.46 291.872 554.34 292.352C555.22 292.816 555.892 293.432 556.356 294.2V287.24H558.564V305H556.356V302.528C555.924 303.312 555.284 303.96 554.436 304.472C553.588 304.968 552.596 305.216 551.46 305.216C550.292 305.216 549.228 304.928 548.268 304.352C547.324 303.776 546.58 302.968 546.036 301.928C545.492 300.888 545.22 299.704 545.22 298.376ZM556.356 298.4C556.356 297.408 556.156 296.544 555.756 295.808C555.356 295.072 554.812 294.512 554.124 294.128C553.452 293.728 552.708 293.528 551.892 293.528C551.076 293.528 550.332 293.72 549.66 294.104C548.988 294.488 548.452 295.048 548.052 295.784C547.652 296.52 547.452 297.384 547.452 298.376C547.452 299.384 547.652 300.264 548.052 301.016C548.452 301.752 548.988 302.32 549.66 302.72C550.332 303.104 551.076 303.296 551.892 303.296C552.708 303.296 553.452 303.104 554.124 302.72C554.812 302.32 555.356 301.752 555.756 301.016C556.156 300.264 556.356 299.392 556.356 298.4ZM576.237 305.168C574.685 305.168 573.269 304.808 571.989 304.088C570.709 303.352 569.693 302.336 568.941 301.04C568.205 299.728 567.837 298.256 567.837 296.624C567.837 294.992 568.205 293.528 568.941 292.232C569.693 290.92 570.709 289.904 571.989 289.184C573.269 288.448 574.685 288.08 576.237 288.08C577.805 288.08 579.229 288.448 580.509 289.184C581.789 289.904 582.797 290.912 583.533 292.208C584.269 293.504 584.637 294.976 584.637 296.624C584.637 298.272 584.269 299.744 583.533 301.04C582.797 302.336 581.789 303.352 580.509 304.088C579.229 304.808 577.805 305.168 576.237 305.168ZM576.237 303.272C577.405 303.272 578.453 303 579.381 302.456C580.325 301.912 581.061 301.136 581.589 300.128C582.133 299.12 582.405 297.952 582.405 296.624C582.405 295.28 582.133 294.112 581.589 293.12C581.061 292.112 580.333 291.336 579.405 290.792C578.477 290.248 577.421 289.976 576.237 289.976C575.053 289.976 573.997 290.248 573.069 290.792C572.141 291.336 571.405 292.112 570.861 293.12C570.333 294.112 570.069 295.28 570.069 296.624C570.069 297.952 570.333 299.12 570.861 300.128C571.405 301.136 572.141 301.912 573.069 302.456C574.013 303 575.069 303.272 576.237 303.272ZM592.872 293.648H590.112V305H587.928V293.648H586.224V291.848H587.928V290.912C587.928 289.44 588.304 288.368 589.056 287.696C589.824 287.008 591.048 286.664 592.728 286.664V288.488C591.768 288.488 591.088 288.68 590.688 289.064C590.304 289.432 590.112 290.048 590.112 290.912V291.848H592.872V293.648ZM600.77 293.648H598.01V305H595.826V293.648H594.122V291.848H595.826V290.912C595.826 289.44 596.202 288.368 596.954 287.696C597.722 287.008 598.946 286.664 600.626 286.664V288.488C599.666 288.488 598.986 288.68 598.586 289.064C598.202 289.432 598.01 290.048 598.01 290.912V291.848H600.77V293.648Z" fill="white"/>
<rect x="434" y="341" width="220" height="5" rx="2.5" fill="black" fill-opacity="0.2"/>
<circle cx="534" cy="344" r="10" fill="white"/>
<rect x="404" y="498" width="280.317" height="118.625" rx="10" fill="#BF4040"/>
<path d="M462.054 542L458.07 535.16H455.43V542H453.246V525.272H458.646C459.91 525.272 460.974 525.488 461.838 525.92C462.718 526.352 463.374 526.936 463.806 527.672C464.238 528.408 464.454 529.248 464.454 530.192C464.454 531.344 464.118 532.36 463.446 533.24C462.79 534.12 461.798 534.704 460.47 534.992L464.67 542H462.054ZM455.43 533.408H458.646C459.83 533.408 460.718 533.12 461.31 532.544C461.902 531.952 462.198 531.168 462.198 530.192C462.198 529.2 461.902 528.432 461.31 527.888C460.734 527.344 459.846 527.072 458.646 527.072H455.43V533.408ZM473.584 542.216C472.352 542.216 471.232 541.936 470.224 541.376C469.232 540.816 468.448 540.024 467.872 539C467.312 537.96 467.032 536.76 467.032 535.4C467.032 534.056 467.32 532.872 467.896 531.848C468.488 530.808 469.288 530.016 470.296 529.472C471.304 528.912 472.432 528.632 473.68 528.632C474.928 528.632 476.056 528.912 477.064 529.472C478.072 530.016 478.864 530.8 479.44 531.824C480.032 532.848 480.328 534.04 480.328 535.4C480.328 536.76 480.024 537.96 479.416 539C478.824 540.024 478.016 540.816 476.992 541.376C475.968 541.936 474.832 542.216 473.584 542.216ZM473.584 540.296C474.368 540.296 475.104 540.112 475.792 539.744C476.48 539.376 477.032 538.824 477.448 538.088C477.88 537.352 478.096 536.456 478.096 535.4C478.096 534.344 477.888 533.448 477.472 532.712C477.056 531.976 476.512 531.432 475.84 531.08C475.168 530.712 474.44 530.528 473.656 530.528C472.856 530.528 472.12 530.712 471.448 531.08C470.792 531.432 470.264 531.976 469.864 532.712C469.464 533.448 469.264 534.344 469.264 535.4C469.264 536.472 469.456 537.376 469.84 538.112C470.24 538.848 470.768 539.4 471.424 539.768C472.08 540.12 472.8 540.296 473.584 540.296ZM494.864 528.848V542H492.68V540.056C492.264 540.728 491.68 541.256 490.928 541.64C490.192 542.008 489.376 542.192 488.48 542.192C487.456 542.192 486.536 541.984 485.72 541.568C484.904 541.136 484.256 540.496 483.776 539.648C483.312 538.8 483.08 537.768 483.08 536.552V528.848H485.24V536.264C485.24 537.56 485.568 538.56 486.224 539.264C486.88 539.952 487.776 540.296 488.912 540.296C490.08 540.296 491 539.936 491.672 539.216C492.344 538.496 492.68 537.448 492.68 536.072V528.848H494.864ZM504.959 528.608C506.559 528.608 507.855 529.096 508.847 530.072C509.839 531.032 510.335 532.424 510.335 534.248V542H508.175V534.56C508.175 533.248 507.847 532.248 507.191 531.56C506.535 530.856 505.639 530.504 504.503 530.504C503.351 530.504 502.431 530.864 501.743 531.584C501.071 532.304 500.735 533.352 500.735 534.728V542H498.551V528.848H500.735V530.72C501.167 530.048 501.751 529.528 502.487 529.16C503.239 528.792 504.063 528.608 504.959 528.608ZM513.087 535.376C513.087 534.032 513.359 532.856 513.903 531.848C514.447 530.824 515.191 530.032 516.135 529.472C517.095 528.912 518.167 528.632 519.351 528.632C520.375 528.632 521.327 528.872 522.207 529.352C523.087 529.816 523.759 530.432 524.223 531.2V524.24H526.431V542H524.223V539.528C523.791 540.312 523.151 540.96 522.303 541.472C521.455 541.968 520.463 542.216 519.327 542.216C518.159 542.216 517.095 541.928 516.135 541.352C515.191 540.776 514.447 539.968 513.903 538.928C513.359 537.888 513.087 536.704 513.087 535.376ZM524.223 535.4C524.223 534.408 524.023 533.544 523.623 532.808C523.223 532.072 522.679 531.512 521.991 531.128C521.319 530.728 520.575 530.528 519.759 530.528C518.943 530.528 518.199 530.72 517.527 531.104C516.855 531.488 516.319 532.048 515.919 532.784C515.519 533.52 515.319 534.384 515.319 535.376C515.319 536.384 515.519 537.264 515.919 538.016C516.319 538.752 516.855 539.32 517.527 539.72C518.199 540.104 518.943 540.296 519.759 540.296C520.575 540.296 521.319 540.104 521.991 539.72C522.679 539.32 523.223 538.752 523.623 538.016C524.023 537.264 524.223 536.392 524.223 535.4ZM544.104 542.168C542.552 542.168 541.136 541.808 539.856 541.088C538.576 540.352 537.56 539.336 536.808 538.04C536.072 536.728 535.704 535.256 535.704 533.624C535.704 531.992 536.072 530.528 536.808 529.232C537.56 527.92 538.576 526.904 539.856 526.184C541.136 525.448 542.552 525.08 544.104 525.08C545.672 525.08 547.096 525.448 548.376 526.184C549.656 526.904 550.664 527.912 551.4 529.208C552.136 530.504 552.504 531.976 552.504 533.624C552.504 535.272 552.136 536.744 551.4 538.04C550.664 539.336 549.656 540.352 548.376 541.088C547.096 541.808 545.672 542.168 544.104 542.168ZM544.104 540.272C545.272 540.272 546.32 540 547.248 539.456C548.192 538.912 548.928 538.136 549.456 537.128C550 536.12 550.272 534.952 550.272 533.624C550.272 532.28 550 531.112 549.456 530.12C548.928 529.112 548.2 528.336 547.272 527.792C546.344 527.248 545.288 526.976 544.104 526.976C542.92 526.976 541.864 527.248 540.936 527.792C540.008 528.336 539.272 529.112 538.728 530.12C538.2 531.112 537.936 532.28 537.936 533.624C537.936 534.952 538.2 536.12 538.728 537.128C539.272 538.136 540.008 538.912 540.936 539.456C541.88 540 542.936 540.272 544.104 540.272ZM560.739 530.648H557.979V542H555.795V530.648H554.091V528.848H555.795V527.912C555.795 526.44 556.171 525.368 556.923 524.696C557.691 524.008 558.915 523.664 560.595 523.664V525.488C559.635 525.488 558.955 525.68 558.555 526.064C558.171 526.432 557.979 527.048 557.979 527.912V528.848H560.739V530.648ZM568.638 530.648H565.878V542H563.694V530.648H561.99V528.848H563.694V527.912C563.694 526.44 564.07 525.368 564.822 524.696C565.59 524.008 566.814 523.664 568.493 523.664V525.488C567.534 525.488 566.854 525.68 566.454 526.064C566.07 526.432 565.878 527.048 565.878 527.912V528.848H568.638V530.648ZM585.958 533.384C586.566 533.48 587.118 533.728 587.614 534.128C588.126 534.528 588.526 535.024 588.814 535.616C589.118 536.208 589.27 536.84 589.27 537.512C589.27 538.36 589.054 539.128 588.622 539.816C588.19 540.488 587.558 541.024 586.726 541.424C585.91 541.808 584.942 542 583.822 542H577.582V525.272H583.582C584.718 525.272 585.686 525.464 586.486 525.848C587.286 526.216 587.886 526.72 588.286 527.36C588.686 528 588.886 528.72 588.886 529.52C588.886 530.512 588.614 531.336 588.07 531.992C587.542 532.632 586.838 533.096 585.958 533.384ZM579.766 532.496H583.438C584.462 532.496 585.254 532.256 585.814 531.776C586.374 531.296 586.654 530.632 586.654 529.784C586.654 528.936 586.374 528.272 585.814 527.792C585.254 527.312 584.446 527.072 583.39 527.072H579.766V532.496ZM583.63 540.2C584.718 540.2 585.566 539.944 586.174 539.432C586.782 538.92 587.086 538.208 587.086 537.296C587.086 536.368 586.766 535.64 586.126 535.112C585.486 534.568 584.63 534.296 583.558 534.296H579.766V540.2H583.63ZM591.485 535.376C591.485 534.032 591.757 532.856 592.301 531.848C592.845 530.824 593.589 530.032 594.533 529.472C595.493 528.912 596.557 528.632 597.725 528.632C598.877 528.632 599.877 528.88 600.725 529.376C601.573 529.872 602.205 530.496 602.621 531.248V528.848H604.829V542H602.621V539.552C602.189 540.32 601.541 540.96 600.677 541.472C599.829 541.968 598.837 542.216 597.701 542.216C596.533 542.216 595.477 541.928 594.533 541.352C593.589 540.776 592.845 539.968 592.301 538.928C591.757 537.888 591.485 536.704 591.485 535.376ZM602.621 535.4C602.621 534.408 602.421 533.544 602.021 532.808C601.621 532.072 601.077 531.512 600.389 531.128C599.717 530.728 598.973 530.528 598.157 530.528C597.341 530.528 596.597 530.72 595.925 531.104C595.253 531.488 594.717 532.048 594.317 532.784C593.917 533.52 593.717 534.384 593.717 535.376C593.717 536.384 593.917 537.264 594.317 538.016C594.717 538.752 595.253 539.32 595.925 539.72C596.597 540.104 597.341 540.296 598.157 540.296C598.973 540.296 599.717 540.104 600.389 539.72C601.077 539.32 601.621 538.752 602.021 538.016C602.421 537.264 602.621 536.392 602.621 535.4ZM607.704 535.4C607.704 534.04 607.976 532.856 608.52 531.848C609.064 530.824 609.816 530.032 610.776 529.472C611.752 528.912 612.864 528.632 614.112 528.632C615.728 528.632 617.056 529.024 618.096 529.808C619.152 530.592 619.848 531.68 620.184 533.072H617.832C617.608 532.272 617.168 531.64 616.512 531.176C615.872 530.712 615.072 530.48 614.112 530.48C612.864 530.48 611.856 530.912 611.088 531.776C610.32 532.624 609.936 533.832 609.936 535.4C609.936 536.984 610.32 538.208 611.088 539.072C611.856 539.936 612.864 540.368 614.112 540.368C615.072 540.368 615.872 540.144 616.512 539.696C617.152 539.248 617.592 538.608 617.832 537.776H620.184C619.832 539.12 619.128 540.2 618.072 541.016C617.016 541.816 615.696 542.216 614.112 542.216C612.864 542.216 611.752 541.936 610.776 541.376C609.816 540.816 609.064 540.024 608.52 539C607.976 537.976 607.704 536.776 607.704 535.4ZM630.442 542L625.282 536.192V542H623.098V524.24H625.282V534.68L630.346 528.848H633.394L627.202 535.4L633.418 542H630.442ZM487.439 549.272V566H485.255V558.416H476.735V566H474.551V549.272H476.735V556.616H485.255V549.272H487.439ZM490.352 559.376C490.352 558.032 490.624 556.856 491.168 555.848C491.712 554.824 492.456 554.032 493.4 553.472C494.36 552.912 495.424 552.632 496.592 552.632C497.744 552.632 498.744 552.88 499.592 553.376C500.44 553.872 501.072 554.496 501.488 555.248V552.848H503.696V566H501.488V563.552C501.056 564.32 500.408 564.96 499.544 565.472C498.696 565.968 497.704 566.216 496.568 566.216C495.4 566.216 494.344 565.928 493.4 565.352C492.456 564.776 491.712 563.968 491.168 562.928C490.624 561.888 490.352 560.704 490.352 559.376ZM501.488 559.4C501.488 558.408 501.288 557.544 500.888 556.808C500.488 556.072 499.944 555.512 499.256 555.128C498.584 554.728 497.84 554.528 497.024 554.528C496.208 554.528 495.464 554.72 494.792 555.104C494.12 555.488 493.584 556.048 493.184 556.784C492.784 557.52 492.584 558.384 492.584 559.376C492.584 560.384 492.784 561.264 493.184 562.016C493.584 562.752 494.12 563.32 494.792 563.72C495.464 564.104 496.208 564.296 497.024 564.296C497.84 564.296 498.584 564.104 499.256 563.72C499.944 563.32 500.488 562.752 500.888 562.016C501.288 561.264 501.488 560.392 501.488 559.4ZM513.795 552.608C515.395 552.608 516.691 553.096 517.683 554.072C518.675 555.032 519.171 556.424 519.171 558.248V566H517.011V558.56C517.011 557.248 516.683 556.248 516.027 555.56C515.371 554.856 514.475 554.504 513.339 554.504C512.187 554.504 511.267 554.864 510.579 555.584C509.907 556.304 509.571 557.352 509.571 558.728V566H507.387V552.848H509.571V554.72C510.003 554.048 510.587 553.528 511.323 553.16C512.075 552.792 512.899 552.608 513.795 552.608ZM521.923 559.376C521.923 558.032 522.195 556.856 522.739 555.848C523.283 554.824 524.027 554.032 524.971 553.472C525.931 552.912 527.003 552.632 528.187 552.632C529.211 552.632 530.163 552.872 531.043 553.352C531.923 553.816 532.595 554.432 533.059 555.2V548.24H535.267V566H533.059V563.528C532.627 564.312 531.987 564.96 531.139 565.472C530.291 565.968 529.299 566.216 528.163 566.216C526.995 566.216 525.931 565.928 524.971 565.352C524.027 564.776 523.283 563.968 522.739 562.928C522.195 561.888 521.923 560.704 521.923 559.376ZM533.059 559.4C533.059 558.408 532.859 557.544 532.459 556.808C532.059 556.072 531.515 555.512 530.827 555.128C530.155 554.728 529.411 554.528 528.595 554.528C527.779 554.528 527.035 554.72 526.363 555.104C525.691 555.488 525.155 556.048 524.755 556.784C524.355 557.52 524.155 558.384 524.155 559.376C524.155 560.384 524.355 561.264 524.755 562.016C525.155 562.752 525.691 563.32 526.363 563.72C527.035 564.104 527.779 564.296 528.595 564.296C529.411 564.296 530.155 564.104 530.827 563.72C531.515 563.32 532.059 562.752 532.459 562.016C532.859 561.264 533.059 560.392 533.059 559.4ZM543.613 566.216C542.605 566.216 541.701 566.048 540.901 565.712C540.101 565.36 539.469 564.88 539.005 564.272C538.541 563.648 538.285 562.936 538.237 562.136H540.493C540.557 562.792 540.861 563.328 541.405 563.744C541.965 564.16 542.693 564.368 543.589 564.368C544.421 564.368 545.077 564.184 545.557 563.816C546.037 563.448 546.277 562.984 546.277 562.424C546.277 561.848 546.021 561.424 545.509 561.152C544.997 560.864 544.205 560.584 543.133 560.312C542.157 560.056 541.357 559.8 540.733 559.544C540.125 559.272 539.597 558.88 539.149 558.368C538.717 557.84 538.501 557.152 538.501 556.304C538.501 555.632 538.701 555.016 539.101 554.456C539.501 553.896 540.069 553.456 540.805 553.136C541.541 552.8 542.381 552.632 543.325 552.632C544.781 552.632 545.957 553 546.853 553.736C547.749 554.472 548.229 555.48 548.293 556.76H546.109C546.061 556.072 545.781 555.52 545.269 555.104C544.773 554.688 544.101 554.48 543.253 554.48C542.469 554.48 541.845 554.648 541.381 554.984C540.917 555.32 540.685 555.76 540.685 556.304C540.685 556.736 540.821 557.096 541.093 557.384C541.381 557.656 541.733 557.88 542.149 558.056C542.581 558.216 543.173 558.4 543.925 558.608C544.869 558.864 545.637 559.12 546.229 559.376C546.821 559.616 547.325 559.984 547.741 560.48C548.173 560.976 548.397 561.624 548.413 562.424C548.413 563.144 548.213 563.792 547.813 564.368C547.413 564.944 546.845 565.4 546.109 565.736C545.389 566.056 544.557 566.216 543.613 566.216ZM553.68 555.272C554.112 554.52 554.752 553.896 555.6 553.4C556.464 552.888 557.464 552.632 558.6 552.632C559.768 552.632 560.824 552.912 561.768 553.472C562.728 554.032 563.48 554.824 564.024 555.848C564.568 556.856 564.84 558.032 564.84 559.376C564.84 560.704 564.568 561.888 564.024 562.928C563.48 563.968 562.728 564.776 561.768 565.352C560.824 565.928 559.768 566.216 558.6 566.216C557.48 566.216 556.488 565.968 555.624 565.472C554.776 564.96 554.128 564.328 553.68 563.576V572.24H551.496V552.848H553.68V555.272ZM562.608 559.376C562.608 558.384 562.408 557.52 562.008 556.784C561.608 556.048 561.064 555.488 560.376 555.104C559.704 554.72 558.96 554.528 558.144 554.528C557.344 554.528 556.6 554.728 555.912 555.128C555.24 555.512 554.696 556.08 554.28 556.832C553.88 557.568 553.68 558.424 553.68 559.4C553.68 560.392 553.88 561.264 554.28 562.016C554.696 562.752 555.24 563.32 555.912 563.72C556.6 564.104 557.344 564.296 558.144 564.296C558.96 564.296 559.704 564.104 560.376 563.72C561.064 563.32 561.608 562.752 562.008 562.016C562.408 561.264 562.608 560.384 562.608 559.376ZM569.899 554.984C570.283 554.232 570.827 553.648 571.531 553.232C572.251 552.816 573.123 552.608 574.147 552.608V554.864H573.571C571.123 554.864 569.899 556.192 569.899 558.848V566H567.715V552.848H569.899V554.984ZM577.796 550.712C577.38 550.712 577.028 550.568 576.74 550.28C576.452 549.992 576.308 549.64 576.308 549.224C576.308 548.808 576.452 548.456 576.74 548.168C577.028 547.88 577.38 547.736 577.796 547.736C578.196 547.736 578.532 547.88 578.804 548.168C579.092 548.456 579.236 548.808 579.236 549.224C579.236 549.64 579.092 549.992 578.804 550.28C578.532 550.568 578.196 550.712 577.796 550.712ZM578.852 552.848V566H576.668V552.848H578.852ZM588.983 552.608C590.583 552.608 591.879 553.096 592.871 554.072C593.863 555.032 594.359 556.424 594.359 558.248V566H592.199V558.56C592.199 557.248 591.871 556.248 591.215 555.56C590.559 554.856 589.663 554.504 588.527 554.504C587.375 554.504 586.455 554.864 585.767 555.584C585.095 556.304 584.759 557.352 584.759 558.728V566H582.575V552.848H584.759V554.72C585.191 554.048 585.775 553.528 586.511 553.16C587.263 552.792 588.087 552.608 588.983 552.608ZM603.35 552.632C604.486 552.632 605.478 552.88 606.326 553.376C607.19 553.872 607.83 554.496 608.246 555.248V552.848H610.454V566.288C610.454 567.488 610.198 568.552 609.686 569.48C609.174 570.424 608.438 571.16 607.478 571.688C606.534 572.216 605.43 572.48 604.166 572.48C602.438 572.48 600.998 572.072 599.846 571.256C598.694 570.44 598.014 569.328 597.806 567.92H599.966C600.206 568.72 600.702 569.36 601.454 569.84C602.206 570.336 603.11 570.584 604.166 570.584C605.366 570.584 606.342 570.208 607.094 569.456C607.862 568.704 608.246 567.648 608.246 566.288V563.528C607.814 564.296 607.174 564.936 606.326 565.448C605.478 565.96 604.486 566.216 603.35 566.216C602.182 566.216 601.118 565.928 600.158 565.352C599.214 564.776 598.47 563.968 597.926 562.928C597.382 561.888 597.11 560.704 597.11 559.376C597.11 558.032 597.382 556.856 597.926 555.848C598.47 554.824 599.214 554.032 600.158 553.472C601.118 552.912 602.182 552.632 603.35 552.632ZM608.246 559.4C608.246 558.408 608.046 557.544 607.646 556.808C607.246 556.072 606.702 555.512 606.014 555.128C605.342 554.728 604.598 554.528 603.782 554.528C602.966 554.528 602.222 554.72 601.55 555.104C600.878 555.488 600.342 556.048 599.942 556.784C599.542 557.52 599.342 558.384 599.342 559.376C599.342 560.384 599.542 561.264 599.942 562.016C600.342 562.752 600.878 563.32 601.55 563.72C602.222 564.104 602.966 564.296 603.782 564.296C604.598 564.296 605.342 564.104 606.014 563.72C606.702 563.32 607.246 562.752 607.646 562.016C608.046 561.264 608.246 560.392 608.246 559.4Z" fill="white"/>
<path d="M659.423 515.376C659.423 514.032 659.695 512.856 660.239 511.848C660.783 510.824 661.527 510.032 662.471 509.472C663.431 508.912 664.495 508.632 665.663 508.632C666.815 508.632 667.815 508.88 668.663 509.376C669.511 509.872 670.143 510.496 670.559 511.248V508.848H672.767V522H670.559V519.552C670.127 520.32 669.479 520.96 668.615 521.472C667.767 521.968 666.775 522.216 665.639 522.216C664.471 522.216 663.415 521.928 662.471 521.352C661.527 520.776 660.783 519.968 660.239 518.928C659.695 517.888 659.423 516.704 659.423 515.376ZM670.559 515.4C670.559 514.408 670.359 513.544 669.959 512.808C669.559 512.072 669.015 511.512 668.327 511.128C667.655 510.728 666.911 510.528 666.095 510.528C665.279 510.528 664.535 510.72 663.863 511.104C663.191 511.488 662.655 512.048 662.255 512.784C661.855 513.52 661.655 514.384 661.655 515.376C661.655 516.384 661.855 517.264 662.255 518.016C662.655 518.752 663.191 519.32 663.863 519.72C664.535 520.104 665.279 520.296 666.095 520.296C666.911 520.296 667.655 520.104 668.327 519.72C669.015 519.32 669.559 518.752 669.959 518.016C670.359 517.264 670.559 516.392 670.559 515.4Z" fill="white" fill-opacity="0.5"/>
<rect x="434" y="590" width="220" height="5" rx="2.5" fill="black" fill-opacity="0.2"/>
<circle cx="448" cy="593" r="10" fill="white"/>
<rect y="498" width="280.317" height="118.625" rx="10" fill="#BF7540"/>
<path d="M95.8685 537.272C97.6925 537.272 99.2685 537.616 100.597 538.304C101.941 538.976 102.965 539.944 103.669 541.208C104.389 542.472 104.749 543.96 104.749 545.672C104.749 547.384 104.389 548.872 103.669 550.136C102.965 551.384 101.941 552.344 100.597 553.016C99.2685 553.672 97.6925 554 95.8685 554H90.6605V537.272H95.8685ZM95.8685 552.2C98.0285 552.2 99.6765 551.632 100.812 550.496C101.949 549.344 102.517 547.736 102.517 545.672C102.517 543.592 101.941 541.968 100.789 540.8C99.6525 539.632 98.0125 539.048 95.8685 539.048H92.8445V552.2H95.8685ZM108.757 538.712C108.341 538.712 107.989 538.568 107.701 538.28C107.413 537.992 107.269 537.64 107.269 537.224C107.269 536.808 107.413 536.456 107.701 536.168C107.989 535.88 108.341 535.736 108.757 535.736C109.157 535.736 109.493 535.88 109.765 536.168C110.053 536.456 110.197 536.808 110.197 537.224C110.197 537.64 110.053 537.992 109.765 538.28C109.493 538.568 109.157 538.712 108.757 538.712ZM109.813 540.848V554H107.629V540.848H109.813ZM118.432 551.984L122.512 540.848H124.84L119.68 554H117.136L111.976 540.848H114.328L118.432 551.984ZM138.989 546.92C138.989 547.336 138.965 547.776 138.917 548.24H128.405C128.485 549.536 128.925 550.552 129.725 551.288C130.541 552.008 131.525 552.368 132.677 552.368C133.621 552.368 134.405 552.152 135.029 551.72C135.669 551.272 136.117 550.68 136.373 549.944H138.725C138.373 551.208 137.669 552.24 136.613 553.04C135.557 553.824 134.245 554.216 132.677 554.216C131.429 554.216 130.309 553.936 129.317 553.376C128.341 552.816 127.573 552.024 127.013 551C126.453 549.96 126.173 548.76 126.173 547.4C126.173 546.04 126.445 544.848 126.989 543.824C127.533 542.8 128.293 542.016 129.269 541.472C130.261 540.912 131.397 540.632 132.677 540.632C133.925 540.632 135.029 540.904 135.989 541.448C136.949 541.992 137.685 542.744 138.197 543.704C138.725 544.648 138.989 545.72 138.989 546.92ZM136.733 546.464C136.733 545.632 136.549 544.92 136.181 544.328C135.813 543.72 135.309 543.264 134.669 542.96C134.045 542.64 133.349 542.48 132.581 542.48C131.477 542.48 130.533 542.832 129.749 543.536C128.981 544.24 128.541 545.216 128.429 546.464H136.733ZM157.078 554L153.094 547.16H150.454V554H148.27V537.272H153.67C154.934 537.272 155.998 537.488 156.862 537.92C157.742 538.352 158.398 538.936 158.83 539.672C159.262 540.408 159.478 541.248 159.478 542.192C159.478 543.344 159.142 544.36 158.47 545.24C157.814 546.12 156.822 546.704 155.494 546.992L159.694 554H157.078ZM150.454 545.408H153.67C154.854 545.408 155.742 545.12 156.334 544.544C156.926 543.952 157.222 543.168 157.222 542.192C157.222 541.2 156.926 540.432 156.334 539.888C155.758 539.344 154.87 539.072 153.67 539.072H150.454V545.408ZM168.607 554.216C167.375 554.216 166.255 553.936 165.247 553.376C164.255 552.816 163.471 552.024 162.895 551C162.335 549.96 162.055 548.76 162.055 547.4C162.055 546.056 162.343 544.872 162.919 543.848C163.511 542.808 164.311 542.016 165.319 541.472C166.327 540.912 167.455 540.632 168.703 540.632C169.951 540.632 171.079 540.912 172.087 541.472C173.095 542.016 173.887 542.8 174.463 543.824C175.055 544.848 175.351 546.04 175.351 547.4C175.351 548.76 175.047 549.96 174.439 551C173.847 552.024 173.039 552.816 172.015 553.376C170.991 553.936 169.855 554.216 168.607 554.216ZM168.607 552.296C169.391 552.296 170.127 552.112 170.815 551.744C171.503 551.376 172.055 550.824 172.471 550.088C172.903 549.352 173.119 548.456 173.119 547.4C173.119 546.344 172.911 545.448 172.495 544.712C172.079 543.976 171.535 543.432 170.863 543.08C170.191 542.712 169.463 542.528 168.679 542.528C167.879 542.528 167.143 542.712 166.471 543.08C165.815 543.432 165.287 543.976 164.887 544.712C164.487 545.448 164.287 546.344 164.287 547.4C164.287 548.472 164.479 549.376 164.863 550.112C165.263 550.848 165.791 551.4 166.447 551.768C167.103 552.12 167.823 552.296 168.607 552.296ZM180.407 536.24V554H178.223V536.24H180.407ZM186.313 536.24V554H184.129V536.24H186.313Z" fill="white"/>
<path d="M255.423 515.376C255.423 514.032 255.695 512.856 256.239 511.848C256.783 510.824 257.527 510.032 258.471 509.472C259.431 508.912 260.495 508.632 261.663 508.632C262.815 508.632 263.815 508.88 264.663 509.376C265.511 509.872 266.143 510.496 266.559 511.248V508.848H268.767V522H266.559V519.552C266.127 520.32 265.479 520.96 264.615 521.472C263.767 521.968 262.775 522.216 261.639 522.216C260.471 522.216 259.415 521.928 258.471 521.352C257.527 520.776 256.783 519.968 256.239 518.928C255.695 517.888 255.423 516.704 255.423 515.376ZM266.559 515.4C266.559 514.408 266.359 513.544 265.959 512.808C265.559 512.072 265.015 511.512 264.327 511.128C263.655 510.728 262.911 510.528 262.095 510.528C261.279 510.528 260.535 510.72 259.863 511.104C259.191 511.488 258.655 512.048 258.255 512.784C257.855 513.52 257.655 514.384 257.655 515.376C257.655 516.384 257.855 517.264 258.255 518.016C258.655 518.752 259.191 519.32 259.863 519.72C260.535 520.104 261.279 520.296 262.095 520.296C262.911 520.296 263.655 520.104 264.327 519.72C265.015 519.32 265.559 518.752 265.959 518.016C266.359 517.264 266.559 516.392 266.559 515.4Z" fill="white" fill-opacity="0.5"/>
<rect x="30" y="590" width="220" height="5" rx="2.5" fill="black" fill-opacity="0.2"/>
<circle cx="75" cy="593" r="10" fill="white"/>
<rect y="249" width="280.317" height="118.625" rx="10" fill="#6ABF40"/>
<path d="M62.4157 288.272V305H60.2317V297.416H51.7117V305H49.5277V288.272H51.7117V295.616H60.2317V288.272H62.4157ZM65.3289 298.376C65.3289 297.032 65.6009 295.856 66.1449 294.848C66.6889 293.824 67.4329 293.032 68.3769 292.472C69.3369 291.912 70.4009 291.632 71.5689 291.632C72.7209 291.632 73.7209 291.88 74.5689 292.376C75.4169 292.872 76.0489 293.496 76.4649 294.248V291.848H78.6729V305H76.4649V302.552C76.0329 303.32 75.3849 303.96 74.5209 304.472C73.6729 304.968 72.6809 305.216 71.5449 305.216C70.3769 305.216 69.3209 304.928 68.3769 304.352C67.4329 303.776 66.6889 302.968 66.1449 301.928C65.6009 300.888 65.3289 299.704 65.3289 298.376ZM76.4649 298.4C76.4649 297.408 76.2649 296.544 75.8649 295.808C75.4649 295.072 74.9209 294.512 74.2329 294.128C73.5609 293.728 72.8169 293.528 72.0009 293.528C71.1849 293.528 70.4409 293.72 69.7689 294.104C69.0969 294.488 68.5609 295.048 68.1609 295.784C67.7609 296.52 67.5609 297.384 67.5609 298.376C67.5609 299.384 67.7609 300.264 68.1609 301.016C68.5609 301.752 69.0969 302.32 69.7689 302.72C70.4409 303.104 71.1849 303.296 72.0009 303.296C72.8169 303.296 73.5609 303.104 74.2329 302.72C74.9209 302.32 75.4649 301.752 75.8649 301.016C76.2649 300.264 76.4649 299.392 76.4649 298.4ZM88.7716 291.608C90.3716 291.608 91.6676 292.096 92.6596 293.072C93.6516 294.032 94.1476 295.424 94.1476 297.248V305H91.9876V297.56C91.9876 296.248 91.6596 295.248 91.0036 294.56C90.3476 293.856 89.4516 293.504 88.3156 293.504C87.1636 293.504 86.2436 293.864 85.5556 294.584C84.8836 295.304 84.5476 296.352 84.5476 297.728V305H82.3636V291.848H84.5476V293.72C84.9796 293.048 85.5636 292.528 86.2996 292.16C87.0516 291.792 87.8756 291.608 88.7716 291.608ZM96.8992 298.376C96.8992 297.032 97.1712 295.856 97.7152 294.848C98.2592 293.824 99.0032 293.032 99.9472 292.472C100.907 291.912 101.979 291.632 103.163 291.632C104.187 291.632 105.139 291.872 106.019 292.352C106.899 292.816 107.571 293.432 108.035 294.2V287.24H110.243V305H108.035V302.528C107.603 303.312 106.963 303.96 106.115 304.472C105.267 304.968 104.275 305.216 103.139 305.216C101.971 305.216 100.907 304.928 99.9472 304.352C99.0032 303.776 98.2592 302.968 97.7152 301.928C97.1712 300.888 96.8992 299.704 96.8992 298.376ZM108.035 298.4C108.035 297.408 107.835 296.544 107.435 295.808C107.035 295.072 106.491 294.512 105.803 294.128C105.131 293.728 104.387 293.528 103.571 293.528C102.755 293.528 102.011 293.72 101.339 294.104C100.667 294.488 100.131 295.048 99.7312 295.784C99.3312 296.52 99.1312 297.384 99.1312 298.376C99.1312 299.384 99.3312 300.264 99.7312 301.016C100.131 301.752 100.667 302.32 101.339 302.72C102.011 303.104 102.755 303.296 103.571 303.296C104.387 303.296 105.131 303.104 105.803 302.72C106.491 302.32 107.035 301.752 107.435 301.016C107.835 300.264 108.035 299.392 108.035 298.4ZM118.59 305.216C117.582 305.216 116.678 305.048 115.878 304.712C115.078 304.36 114.446 303.88 113.982 303.272C113.518 302.648 113.262 301.936 113.214 301.136H115.47C115.534 301.792 115.838 302.328 116.382 302.744C116.942 303.16 117.67 303.368 118.566 303.368C119.398 303.368 120.054 303.184 120.534 302.816C121.014 302.448 121.254 301.984 121.254 301.424C121.254 300.848 120.998 300.424 120.486 300.152C119.974 299.864 119.182 299.584 118.11 299.312C117.134 299.056 116.334 298.8 115.71 298.544C115.102 298.272 114.574 297.88 114.126 297.368C113.694 296.84 113.478 296.152 113.478 295.304C113.478 294.632 113.678 294.016 114.078 293.456C114.478 292.896 115.046 292.456 115.782 292.136C116.518 291.8 117.358 291.632 118.302 291.632C119.758 291.632 120.934 292 121.83 292.736C122.726 293.472 123.206 294.48 123.27 295.76H121.086C121.038 295.072 120.758 294.52 120.246 294.104C119.75 293.688 119.078 293.48 118.23 293.48C117.446 293.48 116.822 293.648 116.358 293.984C115.894 294.32 115.662 294.76 115.662 295.304C115.662 295.736 115.798 296.096 116.07 296.384C116.358 296.656 116.71 296.88 117.126 297.056C117.558 297.216 118.15 297.4 118.902 297.608C119.846 297.864 120.614 298.12 121.206 298.376C121.798 298.616 122.302 298.984 122.718 299.48C123.15 299.976 123.374 300.624 123.39 301.424C123.39 302.144 123.19 302.792 122.79 303.368C122.39 303.944 121.822 304.4 121.086 304.736C120.366 305.056 119.534 305.216 118.59 305.216ZM129.137 293.648V301.4C129.137 302.04 129.273 302.496 129.545 302.768C129.817 303.024 130.289 303.152 130.961 303.152H132.569V305H130.601C129.385 305 128.473 304.72 127.865 304.16C127.257 303.6 126.953 302.68 126.953 301.4V293.648H125.249V291.848H126.953V288.536H129.137V291.848H132.569V293.648H129.137ZM134.399 298.376C134.399 297.032 134.671 295.856 135.215 294.848C135.759 293.824 136.503 293.032 137.447 292.472C138.407 291.912 139.471 291.632 140.639 291.632C141.791 291.632 142.791 291.88 143.639 292.376C144.487 292.872 145.119 293.496 145.535 294.248V291.848H147.743V305H145.535V302.552C145.103 303.32 144.455 303.96 143.591 304.472C142.743 304.968 141.751 305.216 140.615 305.216C139.447 305.216 138.391 304.928 137.447 304.352C136.503 303.776 135.759 302.968 135.215 301.928C134.671 300.888 134.399 299.704 134.399 298.376ZM145.535 298.4C145.535 297.408 145.335 296.544 144.935 295.808C144.535 295.072 143.991 294.512 143.303 294.128C142.631 293.728 141.887 293.528 141.071 293.528C140.255 293.528 139.511 293.72 138.839 294.104C138.167 294.488 137.631 295.048 137.231 295.784C136.831 296.52 136.631 297.384 136.631 298.376C136.631 299.384 136.831 300.264 137.231 301.016C137.631 301.752 138.167 302.32 138.839 302.72C139.511 303.104 140.255 303.296 141.071 303.296C141.887 303.296 142.631 303.104 143.303 302.72C143.991 302.32 144.535 301.752 144.935 301.016C145.335 300.264 145.535 299.392 145.535 298.4ZM157.842 291.608C159.442 291.608 160.738 292.096 161.73 293.072C162.722 294.032 163.218 295.424 163.218 297.248V305H161.058V297.56C161.058 296.248 160.73 295.248 160.074 294.56C159.418 293.856 158.522 293.504 157.386 293.504C156.234 293.504 155.314 293.864 154.626 294.584C153.954 295.304 153.618 296.352 153.618 297.728V305H151.434V291.848H153.618V293.72C154.05 293.048 154.634 292.528 155.37 292.16C156.122 291.792 156.946 291.608 157.842 291.608ZM165.97 298.376C165.97 297.032 166.242 295.856 166.786 294.848C167.33 293.824 168.074 293.032 169.018 292.472C169.978 291.912 171.05 291.632 172.234 291.632C173.258 291.632 174.21 291.872 175.09 292.352C175.97 292.816 176.642 293.432 177.106 294.2V287.24H179.314V305H177.106V302.528C176.674 303.312 176.034 303.96 175.186 304.472C174.338 304.968 173.346 305.216 172.21 305.216C171.042 305.216 169.978 304.928 169.018 304.352C168.074 303.776 167.33 302.968 166.786 301.928C166.242 300.888 165.97 299.704 165.97 298.376ZM177.106 298.4C177.106 297.408 176.906 296.544 176.506 295.808C176.106 295.072 175.562 294.512 174.874 294.128C174.202 293.728 173.458 293.528 172.642 293.528C171.826 293.528 171.082 293.72 170.41 294.104C169.738 294.488 169.202 295.048 168.802 295.784C168.402 296.52 168.202 297.384 168.202 298.376C168.202 299.384 168.402 300.264 168.802 301.016C169.202 301.752 169.738 302.32 170.41 302.72C171.082 303.104 171.826 303.296 172.642 303.296C173.458 303.296 174.202 303.104 174.874 302.72C175.562 302.32 176.106 301.752 176.506 301.016C176.906 300.264 177.106 299.392 177.106 298.4ZM198.211 305L194.227 298.16H191.587V305H189.403V288.272H194.803C196.067 288.272 197.131 288.488 197.995 288.92C198.875 289.352 199.531 289.936 199.963 290.672C200.395 291.408 200.611 292.248 200.611 293.192C200.611 294.344 200.275 295.36 199.603 296.24C198.947 297.12 197.955 297.704 196.627 297.992L200.827 305H198.211ZM191.587 296.408H194.803C195.987 296.408 196.875 296.12 197.467 295.544C198.059 294.952 198.355 294.168 198.355 293.192C198.355 292.2 198.059 291.432 197.467 290.888C196.891 290.344 196.003 290.072 194.803 290.072H191.587V296.408ZM209.74 305.216C208.508 305.216 207.388 304.936 206.38 304.376C205.388 303.816 204.604 303.024 204.028 302C203.468 300.96 203.188 299.76 203.188 298.4C203.188 297.056 203.476 295.872 204.052 294.848C204.644 293.808 205.444 293.016 206.452 292.472C207.46 291.912 208.588 291.632 209.836 291.632C211.084 291.632 212.212 291.912 213.22 292.472C214.228 293.016 215.02 293.8 215.596 294.824C216.188 295.848 216.484 297.04 216.484 298.4C216.484 299.76 216.18 300.96 215.572 302C214.98 303.024 214.172 303.816 213.148 304.376C212.124 304.936 210.988 305.216 209.74 305.216ZM209.74 303.296C210.524 303.296 211.26 303.112 211.948 302.744C212.636 302.376 213.188 301.824 213.604 301.088C214.036 300.352 214.252 299.456 214.252 298.4C214.252 297.344 214.044 296.448 213.628 295.712C213.212 294.976 212.668 294.432 211.996 294.08C211.324 293.712 210.596 293.528 209.812 293.528C209.012 293.528 208.276 293.712 207.604 294.08C206.948 294.432 206.42 294.976 206.02 295.712C205.62 296.448 205.42 297.344 205.42 298.4C205.42 299.472 205.612 300.376 205.996 301.112C206.396 301.848 206.924 302.4 207.58 302.768C208.236 303.12 208.956 303.296 209.74 303.296ZM221.54 287.24V305H219.356V287.24H221.54ZM227.446 287.24V305H225.262V287.24H227.446Z" fill="white"/>
<rect x="30" y="341" width="220" height="5" rx="2.5" fill="black" fill-opacity="0.2"/>
<circle cx="200" cy="344" r="10" fill="white"/>
<rect x="205" width="280.317" height="118.625" rx="10" fill="#40BF4A"/>
<path d="M300.476 39.272V41.048H293.204V46.688H299.108V48.464H293.204V56H291.02V39.272H300.476ZM305.298 44.984C305.682 44.232 306.226 43.648 306.93 43.232C307.65 42.816 308.522 42.608 309.546 42.608V44.864H308.97C306.522 44.864 305.298 46.192 305.298 48.848V56H303.114V42.848H305.298V44.984ZM317.803 56.216C316.571 56.216 315.451 55.936 314.443 55.376C313.451 54.816 312.667 54.024 312.091 53C311.531 51.96 311.251 50.76 311.251 49.4C311.251 48.056 311.539 46.872 312.115 45.848C312.707 44.808 313.507 44.016 314.515 43.472C315.523 42.912 316.651 42.632 317.899 42.632C319.147 42.632 320.275 42.912 321.283 43.472C322.291 44.016 323.083 44.8 323.659 45.824C324.251 46.848 324.547 48.04 324.547 49.4C324.547 50.76 324.243 51.96 323.635 53C323.043 54.024 322.235 54.816 321.211 55.376C320.187 55.936 319.051 56.216 317.803 56.216ZM317.803 54.296C318.587 54.296 319.323 54.112 320.011 53.744C320.699 53.376 321.251 52.824 321.667 52.088C322.099 51.352 322.315 50.456 322.315 49.4C322.315 48.344 322.107 47.448 321.691 46.712C321.275 45.976 320.731 45.432 320.059 45.08C319.387 44.712 318.659 44.528 317.875 44.528C317.075 44.528 316.339 44.712 315.667 45.08C315.011 45.432 314.483 45.976 314.083 46.712C313.683 47.448 313.483 48.344 313.483 49.4C313.483 50.472 313.675 51.376 314.059 52.112C314.459 52.848 314.987 53.4 315.643 53.768C316.299 54.12 317.019 54.296 317.803 54.296ZM333.826 42.608C335.426 42.608 336.722 43.096 337.714 44.072C338.706 45.032 339.202 46.424 339.202 48.248V56H337.042V48.56C337.042 47.248 336.714 46.248 336.058 45.56C335.402 44.856 334.506 44.504 333.37 44.504C332.218 44.504 331.298 44.864 330.61 45.584C329.938 46.304 329.602 47.352 329.602 48.728V56H327.418V42.848H329.602V44.72C330.034 44.048 330.618 43.528 331.354 43.16C332.106 42.792 332.93 42.608 333.826 42.608ZM345.434 44.648V52.4C345.434 53.04 345.57 53.496 345.842 53.768C346.114 54.024 346.586 54.152 347.258 54.152H348.866V56H346.898C345.682 56 344.77 55.72 344.162 55.16C343.554 54.6 343.25 53.68 343.25 52.4V44.648H341.546V42.848H343.25V39.536H345.434V42.848H348.866V44.648H345.434ZM366.719 56L362.735 49.16H360.095V56H357.911V39.272H363.311C364.575 39.272 365.639 39.488 366.503 39.92C367.383 40.352 368.039 40.936 368.471 41.672C368.903 42.408 369.119 43.248 369.119 44.192C369.119 45.344 368.783 46.36 368.111 47.24C367.455 48.12 366.463 48.704 365.135 48.992L369.335 56H366.719ZM360.095 47.408H363.311C364.495 47.408 365.383 47.12 365.975 46.544C366.567 45.952 366.863 45.168 366.863 44.192C366.863 43.2 366.567 42.432 365.975 41.888C365.399 41.344 364.511 41.072 363.311 41.072H360.095V47.408ZM378.248 56.216C377.016 56.216 375.896 55.936 374.888 55.376C373.896 54.816 373.112 54.024 372.536 53C371.976 51.96 371.696 50.76 371.696 49.4C371.696 48.056 371.984 46.872 372.56 45.848C373.152 44.808 373.952 44.016 374.96 43.472C375.968 42.912 377.096 42.632 378.344 42.632C379.592 42.632 380.72 42.912 381.728 43.472C382.736 44.016 383.528 44.8 384.104 45.824C384.696 46.848 384.992 48.04 384.992 49.4C384.992 50.76 384.688 51.96 384.08 53C383.488 54.024 382.68 54.816 381.656 55.376C380.632 55.936 379.496 56.216 378.248 56.216ZM378.248 54.296C379.032 54.296 379.768 54.112 380.456 53.744C381.144 53.376 381.696 52.824 382.112 52.088C382.544 51.352 382.76 50.456 382.76 49.4C382.76 48.344 382.552 47.448 382.136 46.712C381.72 45.976 381.176 45.432 380.504 45.08C379.832 44.712 379.104 44.528 378.32 44.528C377.52 44.528 376.784 44.712 376.112 45.08C375.456 45.432 374.928 45.976 374.528 46.712C374.128 47.448 373.928 48.344 373.928 49.4C373.928 50.472 374.12 51.376 374.504 52.112C374.904 52.848 375.432 53.4 376.088 53.768C376.744 54.12 377.464 54.296 378.248 54.296ZM390.048 38.24V56H387.864V38.24H390.048ZM395.954 38.24V56H393.77V38.24H395.954Z" fill="white"/>
<rect x="235" y="92" width="220" height="5" rx="2.5" fill="black" fill-opacity="0.2"/>
<circle cx="442" cy="95" r="10" fill="white"/>
<path d="M543.294 249.6C543.685 249.991 544.318 249.991 544.708 249.6L551.072 243.236C551.463 242.846 551.463 242.212 551.072 241.822C550.682 241.431 550.048 241.431 549.658 241.822L544.001 247.479L538.344 241.822C537.954 241.432 537.32 241.432 536.93 241.822C536.539 242.213 536.539 242.846 536.93 243.236L543.294 249.6ZM543 186L543.001 248.893L545.001 248.893L545 186L543 186Z" fill="white"/>
<path d="M139.294 249.6C139.685 249.991 140.318 249.991 140.708 249.6L147.072 243.236C147.463 242.846 147.463 242.212 147.072 241.822C146.682 241.431 146.048 241.431 145.658 241.822L140.001 247.479L134.344 241.822C133.954 241.432 133.32 241.432 132.93 241.822C132.539 242.213 132.539 242.846 132.93 243.236L139.294 249.6ZM139 186L139.001 248.893L141.001 248.893L141 186L139 186Z" fill="white"/>
<path d="M137.294 498.6C137.685 498.991 138.318 498.991 138.708 498.6L145.072 492.236C145.463 491.846 145.463 491.212 145.072 490.822C144.682 490.431 144.048 490.431 143.658 490.822L138.001 496.479L132.344 490.822C131.954 490.432 131.32 490.432 130.93 490.822C130.539 491.213 130.539 491.846 130.93 492.236L137.294 498.6ZM137 435L137.001 497.893L139.001 497.893L139 435L137 435Z" fill="white"/>
<path d="M543.294 498.6C543.685 498.991 544.318 498.991 544.708 498.6L551.072 492.236C551.463 491.846 551.463 491.212 551.072 490.822C550.682 490.431 550.048 490.431 549.658 490.822L544.001 496.479L538.344 490.822C537.954 490.432 537.32 490.432 536.93 490.822C536.539 491.213 536.539 491.846 536.93 492.236L543.294 498.6ZM543 435L543.001 497.893L545.001 497.893L545 435L543 435Z" fill="white"/>
<line x1="140" y1="187" x2="545" y2="187" stroke="white" stroke-width="2"/>
<line x1="348" y1="186" x2="348" y2="119" stroke="white" stroke-width="2"/>
<line x1="138" y1="437" x2="138" y2="368" stroke="white" stroke-width="2"/>
<line x1="544" y1="437" x2="544" y2="368" stroke="white" stroke-width="2"/>
</svg>
